<?xml version="1.0" encoding="UTF-8"?>
<svg id="Calque_1" data-name="Calque 1" xmlns="http://www.w3.org/2000/svg" viewBox="0 0 756.01 207.48">
  <defs>
    <style>
      .cls-1 {
        font-size: 141.16px;
      }

      .cls-1, .cls-2 {
        fill: #060809;
      }

      .cls-3 {
        font-family: SalmonRegular, Salmon;
      }

      .cls-4 {
        font-family: Montserrat-Bold, Montserrat;
        font-weight: 700;
      }
    </style>
  </defs>
  <text class="cls-1" transform="translate(0 146.97)"><tspan class="cls-3" x="0" y="0">B.</tspan><tspan class="cls-4" x="125.58" y="0">CLEAN</tspan></text>
  <path class="cls-2" d="M756.01,55.41l-14.37,3.47c-3.92,1.07-7.87,2.56-11.16,4.98-11.81,8.67-12.31,24.41-14.14,37.7-1.88-15.71-4-33.05-19.97-40.51-6.07-2.84-12.71-4.46-19.25-5.76,8.35-2.33,17.23-3.41,24.49-8.48,10.72-7.47,12.27-22.5,14.5-34.38,2.39,13.22,4.09,27.19,16.13,35.25,7.1,4.75,15.53,6.06,23.76,7.73Z"/>
  <path class="cls-2" d="M690,29.1c.05.33-.39.31-.63.38-3.83,1.24-7.75,1.54-11.57,3.21-9.94,4.36-11.83,14.02-12.58,23.91-.43-.09-.41-.45-.46-.79-.74-5.46-1.01-11-3.99-15.79-4.97-7.98-14.07-9.29-22.6-10.82,7.37-1.04,15.72-2.29,20.81-8.3,4.67-5.52,5.03-14.06,6.14-20.92,1.8,8.17,1.94,17.67,8.87,23.41,4.38,3.63,10.53,4.83,16.02,5.69Z"/>
</svg>